<?xml version="1.0" encoding="UTF-8" standalone="no"?>
<!-- Created with Inkscape (http://www.inkscape.org/) -->

<svg
   width="192.5731mm"
   height="115.95525mm"
   viewBox="0 0 192.5731 115.95525"
   version="1.1"
   id="svg1"
   xmlns="http://www.w3.org/2000/svg"
   xmlns:svg="http://www.w3.org/2000/svg">
  <defs
     id="defs1">
    <linearGradient
       id="swatch11">
      <stop
         style="stop-color:#000000;stop-opacity:1;"
         offset="0"
         id="stop11" />
    </linearGradient>
    <linearGradient
       id="swatch10">
      <stop
         style="stop-color:#000000;stop-opacity:1;"
         offset="0"
         id="stop10" />
    </linearGradient>
  </defs>
  <g
     id="layer1"
     transform="translate(-9.1262968,-74.327814)">
    <path
       id="rect36"
       style="fill:#ffc512;fill-opacity:1;stroke:#ffffff;stroke-width:2.21617;stroke-linecap:round;stroke-linejoin:bevel;stroke-dasharray:none;stroke-opacity:1"
       d="m 53.239948,75.435906 c -0.371488,0.0037 -0.647715,0.02229 -1.044403,0.02229 -33.183711,0 -40.639819,19.730998 -41.961163,32.716754 v 9.72686 c 0.07942,0.67668 0.171435,1.39006 0.171435,1.39006 l -0.171435,-0.22542 v 70.10851 h 5.313383 v -0.0728 h 59.016761 v 0.0728 H 105.41283 V 75.435893 Z" />
    <path
       id="rect45"
       style="fill:#74d2d1;fill-opacity:1;stroke:#ffffff;stroke-width:2.21617;stroke-linecap:round;stroke-linejoin:bevel;stroke-dasharray:none;stroke-opacity:1"
       d="M 105.41283,75.435906 V 119.60418 C 98.003186,108.4206 87.907823,99.420425 88.056077,133.79117 c 0.147444,34.18311 10.055889,25.02234 17.356753,13.59646 v 41.78734 h 52.959 l -0.0902,-0.074 c 0,0 0.43521,0.0544 0.55381,0.074 h 11.03615 c 0.70467,-0.0936 1.4317,-0.21559 2.16779,-0.35458 0.18574,-0.0351 0.37424,-0.0756 0.56166,-0.11382 0.5887,-0.12017 1.18541,-0.25853 1.78768,-0.41209 0.19124,-0.0488 0.38176,-0.0944 0.57408,-0.14675 0.77852,-0.21194 1.56315,-0.44549 2.35386,-0.72087 0.78282,-0.27262 1.57016,-0.58915 2.35611,-0.931 0.21329,-0.0928 0.42639,-0.19645 0.6395,-0.29469 0.58025,-0.26739 1.15815,-0.55684 1.73467,-0.86643 0.2377,-0.12767 0.47503,-0.25576 0.71167,-0.39094 0.66063,-0.37736 1.31605,-0.78453 1.96476,-1.22335 0.12217,-0.0827 0.24714,-0.15339 0.3688,-0.23832 0.11212,-0.0782 0.22224,-0.16399 0.33385,-0.24421 0.4666,-0.33537 0.92819,-0.68962 1.38502,-1.06015 0.13257,-0.10759 0.26649,-0.21229 0.39815,-0.32286 0.53472,-0.44919 1.06179,-0.92172 1.57901,-1.42293 0.0991,-0.096 0.19593,-0.19899 0.29436,-0.29703 0.4521,-0.45033 0.89647,-0.92283 1.33202,-1.41589 0.1027,-0.11631 0.20728,-0.22874 0.30903,-0.3475 0.49404,-0.57658 0.97531,-1.18163 1.44367,-1.81741 0.0961,-0.13044 0.18816,-0.26848 0.28309,-0.40151 0.40318,-0.56492 0.79568,-1.1535 1.17636,-1.76575 0.0858,-0.13785 0.17378,-0.27058 0.25829,-0.41091 0.42739,-0.70961 0.83839,-1.45306 1.23277,-2.22714 0.0909,-0.17834 0.17716,-0.36405 0.26616,-0.54592 0.34146,-0.69774 0.67094,-1.4202 0.98351,-2.17078 0.0599,-0.14386 0.12278,-0.28152 0.18158,-0.42734 0.35006,-0.86836 0.67605,-1.77762 0.98463,-2.71789 0.0686,-0.20925 0.13426,-0.42462 0.20075,-0.6375 0.27381,-0.87644 0.5314,-1.7807 0.76696,-2.72025 0.0322,-0.12838 0.069,-0.24963 0.10032,-0.37919 0.25228,-1.03967 0.47423,-2.1265 0.67673,-3.24504 0.0466,-0.25718 0.0904,-0.51928 0.13423,-0.78073 0.17901,-1.06827 0.33895,-2.16637 0.47032,-3.30724 0.0123,-0.10722 0.0287,-0.20797 0.0406,-0.31582 0.13481,-1.2211 0.23301,-2.49644 0.31016,-3.80268 0.0183,-0.31101 0.0335,-0.62566 0.0485,-0.94159 0.0639,-1.34564 0.10831,-2.72043 0.10831,-4.15725 0,-1.28586 0.0267,-2.38189 0.0677,-3.38002 0.0301,-0.87611 0.0785,-1.62043 0.13307,-2.3246 4e-5,-3.4e-4 -3e-5,-8.2e-4 0,-0.001 v -13.58362 c -0.22476,-1.70691 -0.34624,-4.14778 -0.34624,-7.43983 0,-32.891783 -17.18769,-41.498573 -29.602,-43.434484 z" />
    <path
       id="rect59"
       style="fill:#000000;fill-opacity:1;stroke:#000000;stroke-width:2.22677;stroke-linecap:round;stroke-linejoin:bevel;stroke-dasharray:none;stroke-opacity:1"
       d="M 70.62838,89.298885 29.821382,127.56645 v 2.98088 h -0.0045 v 1.37946 h 0.0045 v 1.97707 l 40.806998,37.84493 v -5.78446 l -36.210481,-33.582 V 129.6163 L 70.62838,95.657429 Z" />
    <path
       id="rect59-9"
       style="fill:#000000;fill-opacity:1;stroke:#000000;stroke-width:2.37596;stroke-linecap:round;stroke-linejoin:bevel;stroke-dasharray:none;stroke-opacity:1"
       d="m 138.58224,89.298885 v 6.358544 l 36.02367,33.965921 h -0.005 v 2.75546 l -36.01988,33.58552 v 5.78446 l 40.58676,-37.84493 v -1.05193 h 0.008 v -3.22858 h -0.008 v -2.0569 z" />
    <rect
       style="fill:#000000;fill-opacity:1;stroke:#000000;stroke-width:2.51443;stroke-linecap:round;stroke-linejoin:bevel;stroke-dasharray:none;stroke-opacity:1"
       id="rect60"
       width="4.9604216"
       height="91.069153"
       x="161.41449"
       y="98.656921"
       transform="matrix(1,0,-0.40774488,0.91309589,0,0)" />
  </g>
</svg>
